<svg width="1458.008" height="101.563" viewBox="0 0 1458.008 101.563" xmlns="http://www.w3.org/2000/svg"><g id="svgGroup" stroke-linecap="round" fill-rule="evenodd" font-size="9pt" stroke="#000" stroke-width="0.25mm" fill="#000" style="stroke:#000;stroke-width:0.25mm;fill:#000"><path d="M 727.149 45.654 L 727.149 74.17 Q 727.149 75.635 726.538 76.196 Q 725.928 76.758 724.463 76.758 L 714.405 76.758 Q 712.94 76.758 712.329 76.196 Q 711.719 75.635 711.719 74.17 L 711.719 48.193 Q 711.719 42.725 709.717 40.356 Q 707.715 37.988 703.711 37.988 Q 700.147 37.988 698.072 39.575 Q 695.996 41.162 695.118 43.848 L 695.118 74.17 Q 695.118 75.635 694.507 76.196 Q 693.897 76.758 692.432 76.758 L 682.373 76.758 Q 680.909 76.758 680.298 76.196 Q 679.688 75.635 679.688 74.17 L 679.688 48.193 Q 679.688 42.871 677.491 40.43 Q 675.293 37.988 671.729 37.988 Q 668.36 37.988 666.309 39.648 Q 664.258 41.308 663.135 43.847 L 663.135 74.17 Q 663.135 75.635 662.525 76.196 Q 661.914 76.758 660.45 76.758 L 650.391 76.758 Q 648.926 76.758 648.316 76.196 Q 647.705 75.635 647.705 74.17 L 647.705 33.252 Q 647.705 32.08 648.194 31.445 Q 649.219 30.078 650.66 28.662 Q 652.1 27.246 654.2 25.635 Q 654.834 25.146 655.42 25.146 Q 655.957 25.146 656.641 25.635 Q 658.692 27.246 660.157 28.711 Q 661.621 30.176 662.745 31.738 L 662.989 31.738 Q 664.649 29.639 668.164 27.588 Q 671.68 25.537 678.223 25.537 Q 684.473 25.537 687.5 27.417 Q 690.528 29.297 692.432 31.885 Q 694.239 29.688 698.023 27.612 Q 701.807 25.537 708.692 25.537 Q 718.457 25.537 722.803 30.566 Q 727.149 35.596 727.149 45.654 Z M 1244.287 33.74 L 1244.287 33.496 Q 1244.287 36.523 1244.654 40.479 Q 1245.02 44.434 1245.703 48.633 Q 1246.387 52.832 1247.339 56.641 Q 1248.291 60.449 1249.463 63.184 L 1249.756 63.184 Q 1251.026 60.449 1252.442 56.055 Q 1253.858 51.66 1255.152 46.753 Q 1256.446 41.846 1257.471 37.5 Q 1258.496 33.154 1258.936 30.615 Q 1259.278 28.711 1260.474 28.076 Q 1261.67 27.441 1263.819 27.441 L 1269.483 27.441 Q 1271.924 27.441 1272.974 28.174 Q 1274.024 28.906 1274.268 30.615 Q 1274.659 33.252 1275.684 37.72 Q 1276.709 42.188 1278.003 47.168 Q 1279.297 52.148 1280.616 56.494 Q 1281.934 60.84 1282.862 63.184 L 1283.203 63.184 Q 1284.668 59.961 1285.987 54.858 Q 1287.305 49.756 1288.135 44.092 Q 1288.965 38.428 1288.965 33.545 L 1288.965 33.74 Q 1288.965 32.568 1289.453 31.934 Q 1290.577 30.566 1292.09 29.15 Q 1293.604 27.734 1295.752 26.123 Q 1296.436 25.635 1297.022 25.635 Q 1297.705 25.635 1298.291 26.123 Q 1300.489 27.734 1302.002 29.15 Q 1303.516 30.566 1304.59 31.934 Q 1305.078 32.568 1305.078 33.643 L 1305.078 33.74 L 1305.078 33.545 L 1305.078 33.643 Q 1305.03 36.035 1304.151 40.015 Q 1303.272 43.994 1301.831 48.73 Q 1300.391 53.467 1298.658 58.203 Q 1296.924 62.939 1295.142 66.895 Q 1293.36 70.85 1291.846 73.193 Q 1290.87 74.707 1290.137 75.488 Q 1289.405 76.27 1288.355 76.514 Q 1287.305 76.758 1285.254 76.758 L 1279.737 76.758 Q 1277.442 76.758 1276.148 76.099 Q 1274.854 75.439 1273.731 73.193 Q 1273.047 71.875 1272.071 68.774 Q 1271.094 65.674 1270.069 61.987 Q 1269.043 58.301 1268.262 55.078 Q 1267.481 51.855 1267.237 50.342 Q 1266.993 48.877 1266.724 46.777 Q 1266.455 44.678 1266.358 43.457 L 1266.114 43.457 Q 1266.065 44.678 1265.796 46.753 Q 1265.528 48.828 1265.235 50.391 Q 1264.942 51.758 1264.161 54.614 Q 1263.379 57.471 1262.281 60.913 Q 1261.182 64.355 1259.986 67.627 Q 1258.789 70.898 1257.715 73.193 Q 1256.641 75.439 1255.249 76.099 Q 1253.858 76.758 1250.83 76.758 L 1245.166 76.758 Q 1242.774 76.758 1241.919 76.025 Q 1241.065 75.293 1239.698 73.193 Q 1238.282 70.996 1236.67 67.065 Q 1235.059 63.135 1233.496 58.325 Q 1231.934 53.516 1230.64 48.706 Q 1229.346 43.896 1228.565 39.868 Q 1227.784 35.84 1227.784 33.545 L 1227.784 33.447 L 1227.784 33.74 L 1227.784 33.545 Q 1227.784 32.568 1228.321 31.934 Q 1230.567 29.15 1234.717 26.123 Q 1235.45 25.635 1236.036 25.635 Q 1236.67 25.635 1237.354 26.123 Q 1239.6 27.734 1241.138 29.15 Q 1242.676 30.566 1243.75 31.934 Q 1244.287 32.568 1244.287 33.74 Z M 458.106 43.848 L 458.106 74.17 Q 458.106 75.635 457.495 76.196 Q 456.885 76.758 455.42 76.758 L 445.362 76.758 Q 443.897 76.758 443.287 76.196 Q 442.676 75.635 442.676 74.17 L 442.676 8.105 Q 442.676 6.934 443.164 6.299 Q 445.215 3.613 449.17 0.488 Q 449.854 0 450.391 0 Q 451.026 0 451.612 0.488 Q 453.711 2.1 455.152 3.516 Q 456.592 4.932 457.618 6.299 Q 458.106 6.934 458.106 8.105 L 458.106 31.787 L 458.301 31.787 Q 459.375 30.371 461.084 28.931 Q 462.793 27.49 465.65 26.514 Q 468.506 25.537 472.95 25.537 Q 477.442 25.537 481.592 27.393 Q 485.743 29.248 488.379 33.643 Q 491.016 38.037 491.016 45.654 L 491.016 74.17 Q 491.016 75.635 490.406 76.196 Q 489.795 76.758 488.33 76.758 L 478.272 76.758 Q 476.807 76.758 476.197 76.196 Q 475.586 75.635 475.586 74.17 L 475.586 48.34 Q 475.586 42.92 473.34 40.454 Q 471.094 37.988 467.237 37.988 Q 463.428 37.988 461.328 39.648 Q 459.229 41.309 458.106 43.848 Z M 577.735 56.348 L 577.735 74.17 Q 577.735 75.635 577.124 76.196 Q 576.514 76.758 575.049 76.758 L 564.991 76.758 Q 563.526 76.758 562.915 76.196 Q 562.305 75.635 562.305 74.17 L 562.305 8.105 Q 562.305 6.934 562.793 6.299 Q 564.844 3.613 568.799 0.488 Q 569.483 0 570.02 0 Q 570.655 0 571.241 0.488 Q 573.34 2.1 574.781 3.516 Q 576.221 4.932 577.246 6.299 Q 577.735 6.934 577.735 8.105 L 577.735 46.436 L 578.321 46.436 Q 585.743 46.436 588.404 43.774 Q 591.065 41.113 591.065 36.377 L 591.065 33.74 Q 591.065 32.568 591.553 31.934 Q 593.604 29.248 597.559 26.123 Q 598.243 25.635 598.78 25.635 Q 599.414 25.635 600 26.123 Q 602.1 27.734 603.54 29.15 Q 604.981 30.566 606.006 31.934 Q 606.495 32.568 606.495 33.74 L 606.495 36.377 Q 606.495 39.16 605.396 42.529 Q 604.297 45.898 601.416 48.486 Q 598.536 51.074 593.213 51.514 L 593.213 51.758 Q 597.315 53.564 600.293 56.543 Q 603.272 59.521 605.274 62.915 Q 607.276 66.309 608.374 69.409 Q 609.473 72.51 609.815 74.658 Q 610.157 76.758 608.399 76.758 L 595.557 76.758 Q 593.897 76.758 593.653 74.756 Q 593.311 72.461 592.163 69.36 Q 591.016 66.26 589.087 63.281 Q 587.159 60.303 584.449 58.325 Q 581.739 56.348 578.321 56.348 L 577.735 56.348 Z M 1358.228 44.727 Q 1356.495 38.721 1356.495 33.643 L 1356.495 33.74 L 1356.495 33.594 L 1356.495 33.643 Q 1356.495 38.721 1358.228 44.727 Q 1359.961 50.732 1362.842 56.763 Q 1365.723 62.793 1369.312 67.944 Q 1372.901 73.096 1376.612 76.514 Q 1373.047 82.568 1369.385 84.766 Q 1365.723 86.963 1362.354 86.963 Q 1361.377 86.963 1360.889 86.865 Q 1360.401 86.768 1360.157 86.768 Q 1359.912 86.768 1359.571 86.89 Q 1359.229 87.012 1358.692 87.451 Q 1357.911 88.086 1356.787 89.185 Q 1355.664 90.283 1354.883 91.309 Q 1354.541 91.699 1354.297 92.139 Q 1354.053 92.578 1354.053 93.115 Q 1354.053 93.604 1354.444 94.312 Q 1354.834 95.02 1355.176 95.557 Q 1356.641 97.754 1357.911 98.975 Q 1358.545 99.512 1359.473 99.878 Q 1360.401 100.244 1362.207 100.244 Q 1370.703 100.244 1378.565 94.727 Q 1386.426 89.209 1393.213 77.148 Q 1397.754 69.141 1400.928 60.791 Q 1404.102 52.441 1405.762 45.288 Q 1407.422 38.135 1407.471 33.691 L 1407.471 33.594 L 1407.471 33.74 L 1407.471 33.691 Q 1407.471 32.568 1406.983 31.934 Q 1405.909 30.566 1404.395 29.15 Q 1402.881 27.734 1400.684 26.123 Q 1400.098 25.635 1399.414 25.635 Q 1398.828 25.635 1398.145 26.123 Q 1395.996 27.734 1394.483 29.15 Q 1392.969 30.566 1391.846 31.934 Q 1391.358 32.568 1391.358 33.74 L 1391.358 33.594 Q 1391.358 36.865 1390.674 41.089 Q 1389.991 45.313 1388.916 49.585 Q 1387.842 53.857 1386.646 57.349 Q 1385.45 60.84 1384.473 62.695 L 1384.229 62.695 Q 1382.08 60.742 1380.078 57.446 Q 1378.077 54.15 1376.465 50.073 Q 1374.854 45.996 1373.926 41.699 Q 1372.998 37.402 1372.998 33.545 L 1372.998 33.74 Q 1372.998 32.568 1372.461 31.934 Q 1371.387 30.566 1369.849 29.15 Q 1368.311 27.734 1366.065 26.123 Q 1365.381 25.635 1364.746 25.635 Q 1364.161 25.635 1363.428 26.123 Q 1359.278 29.15 1357.032 31.934 Q 1356.495 32.568 1356.495 33.643 M 429.493 31.445 L 429.493 71.045 Q 429.493 85.303 421.363 92.773 Q 413.233 100.244 399.073 100.244 Q 393.213 100.244 389.795 99.39 Q 386.377 98.535 384.62 97.754 Q 383.496 97.217 383.155 96.631 Q 382.666 95.85 382.056 94.336 Q 381.446 92.822 380.909 91.016 Q 380.762 90.332 380.86 89.99 Q 381.055 89.502 381.592 88.965 Q 382.471 88.086 384.107 86.914 Q 385.743 85.742 386.621 85.4 Q 387.549 85.059 388.33 85.498 Q 389.6 86.182 391.968 87.036 Q 394.336 87.891 398.633 87.891 Q 405.469 87.891 409.766 84.375 Q 414.063 80.859 414.063 73.535 L 414.063 71.777 L 413.868 71.777 Q 412.793 73.145 411.084 74.561 Q 409.375 75.977 406.665 76.953 Q 403.955 77.93 399.707 77.93 Q 392.334 77.93 387.622 74.731 Q 382.911 71.533 380.689 65.918 Q 378.467 60.303 378.467 53.125 Q 378.467 45.264 381.055 39.014 Q 383.643 32.764 389.746 29.126 Q 395.85 25.488 406.446 25.488 Q 412.793 25.488 417.115 26.416 Q 421.436 27.344 424.366 28.711 Q 427.295 30.078 429.493 31.445 Z M 1113.575 56.934 L 1113.526 32.129 Q 1113.526 30.957 1114.014 30.322 Q 1116.065 27.637 1120.02 24.512 Q 1120.703 24.023 1121.241 24.023 Q 1121.875 24.023 1122.461 24.512 Q 1124.561 26.123 1126.001 27.539 Q 1127.442 28.955 1128.467 30.322 Q 1128.955 30.957 1128.955 32.129 L 1128.955 55.566 Q 1128.955 66.162 1137.354 66.162 Q 1141.504 66.162 1143.995 63.257 Q 1146.485 60.352 1146.485 55.371 L 1146.485 32.129 Q 1146.485 30.957 1146.973 30.322 Q 1149.024 27.637 1152.979 24.512 Q 1153.662 24.023 1154.2 24.023 Q 1154.834 24.023 1155.42 24.512 Q 1157.52 26.123 1158.96 27.539 Q 1160.401 28.955 1161.426 30.322 Q 1161.914 30.957 1161.914 32.129 L 1161.914 74.512 Q 1161.914 75.439 1161.28 76.099 Q 1160.645 76.758 1159.668 76.758 L 1152.344 76.758 Q 1151.563 76.758 1150.953 76.538 Q 1150.342 76.318 1149.805 75.684 L 1146.778 71.777 L 1146.436 71.777 Q 1145.655 72.9 1144.019 74.365 Q 1142.383 75.83 1139.283 76.904 Q 1136.182 77.979 1130.957 77.979 Q 1113.575 77.979 1113.575 56.934 Z M 788.672 45.654 L 788.672 74.17 Q 788.672 75.635 788.062 76.196 Q 787.452 76.758 785.987 76.758 L 775.928 76.758 Q 774.463 76.758 773.853 76.196 Q 773.243 75.635 773.243 74.17 L 773.243 48.193 Q 773.243 42.871 770.996 40.43 Q 768.75 37.988 764.893 37.988 Q 761.036 37.988 758.96 39.648 Q 756.885 41.309 755.762 43.848 L 755.762 74.17 Q 755.762 75.635 755.152 76.196 Q 754.541 76.758 753.077 76.758 L 743.018 76.758 Q 741.553 76.758 740.943 76.196 Q 740.332 75.635 740.332 74.17 L 740.332 33.252 Q 740.332 32.08 740.821 31.445 Q 741.846 30.078 743.287 28.662 Q 744.727 27.246 746.827 25.635 Q 747.461 25.146 748.047 25.146 Q 748.584 25.146 749.268 25.635 Q 751.319 27.246 752.784 28.711 Q 754.248 30.176 755.371 31.738 L 755.616 31.738 Q 756.446 30.664 758.106 29.224 Q 759.766 27.783 762.769 26.66 Q 765.772 25.537 770.459 25.537 Q 775.049 25.537 779.2 27.393 Q 783.35 29.248 786.011 33.643 Q 788.672 38.037 788.672 45.654 Z M 1452.051 76.758 L 1417.871 76.758 Q 1415.43 76.758 1413.721 75.415 Q 1412.012 74.072 1411.89 71.753 Q 1411.768 69.434 1414.063 66.504 L 1436.182 38.135 L 1417.481 38.135 Q 1416.602 38.135 1416.114 37.793 Q 1414.112 36.182 1411.914 33.35 Q 1411.524 32.715 1411.524 32.422 Q 1411.524 32.08 1411.914 31.543 Q 1414.112 28.711 1416.114 27.1 Q 1416.7 26.758 1417.481 26.758 L 1449.268 26.758 Q 1454.151 26.758 1455.469 29.907 Q 1456.787 33.057 1453.76 36.963 L 1431.983 65.381 L 1452.051 65.381 Q 1452.93 65.381 1453.418 65.723 Q 1455.42 67.334 1457.618 70.166 Q 1458.008 70.801 1458.008 71.094 Q 1458.008 71.436 1457.618 71.973 Q 1455.42 74.805 1453.418 76.416 Q 1452.832 76.758 1452.051 76.758 Z M 879.102 72.656 L 878.907 72.656 L 878.907 93.457 Q 878.907 94.629 878.418 95.264 Q 876.368 97.949 872.412 101.074 Q 871.729 101.563 871.192 101.563 Q 870.606 101.563 869.971 101.074 Q 867.871 99.463 866.431 98.047 Q 864.991 96.631 863.965 95.264 Q 863.477 94.629 863.477 93.457 L 863.477 33.252 Q 863.477 32.08 863.965 31.445 Q 864.991 30.078 866.431 28.662 Q 867.871 27.246 869.971 25.635 Q 870.606 25.146 871.289 25.146 Q 871.924 25.146 872.608 25.635 Q 874.659 27.246 876.123 28.711 Q 877.588 30.176 878.711 31.738 L 878.955 31.738 Q 879.786 30.713 881.495 29.248 Q 883.203 27.783 886.353 26.66 Q 889.502 25.537 894.58 25.537 Q 901.709 25.537 906.324 28.735 Q 910.938 31.934 913.208 37.524 Q 915.479 43.115 915.479 50.342 Q 915.479 58.154 912.818 64.404 Q 910.157 70.654 904.981 74.316 Q 899.805 77.979 892.139 77.979 Q 888.184 77.979 885.62 77.075 Q 883.057 76.172 881.519 74.927 Q 879.981 73.682 879.102 72.656 Z M 59.034 72.021 L 59.034 8.105 Q 59.034 6.934 59.522 6.299 Q 61.573 3.613 65.528 0.488 Q 66.211 0 66.748 0 Q 67.383 0 67.969 0.488 Q 70.069 2.1 71.509 3.516 Q 72.95 4.932 73.975 6.299 Q 74.463 6.934 74.463 8.105 L 74.463 31.787 L 74.659 31.787 Q 76.612 29.297 80.078 27.417 Q 83.545 25.537 89.746 25.537 Q 96.68 25.537 101.172 28.735 Q 105.664 31.934 107.862 37.524 Q 110.059 43.115 110.059 50.342 Q 110.059 58.154 107.471 64.429 Q 104.883 70.703 98.755 74.341 Q 92.627 77.979 81.983 77.979 Q 75.684 77.979 71.387 77.051 Q 67.09 76.123 64.161 74.756 Q 61.231 73.389 59.034 72.021 Z M 258.399 26.318 L 258.399 8.105 Q 258.399 6.934 258.887 6.299 Q 260.938 3.613 264.893 0.488 Q 265.577 0 266.114 0 Q 266.748 0 267.334 0.488 Q 269.434 2.1 270.874 3.516 Q 272.315 4.932 273.34 6.299 Q 273.828 6.934 273.828 8.105 L 273.828 74.512 Q 273.828 75.439 273.194 76.099 Q 272.559 76.758 271.582 76.758 L 264.307 76.758 Q 263.526 76.758 262.915 76.538 Q 262.305 76.318 261.768 75.684 L 258.741 71.777 L 258.399 71.777 Q 257.764 72.754 256.128 74.243 Q 254.493 75.732 251.392 76.855 Q 248.291 77.979 243.164 77.979 Q 236.67 77.979 232.105 74.78 Q 227.539 71.582 225.171 65.942 Q 222.803 60.303 222.803 52.93 Q 222.803 43.213 226.245 37.183 Q 229.688 31.152 235.962 28.32 Q 242.237 25.488 250.782 25.488 Q 253.711 25.488 255.64 25.781 Q 257.569 26.074 258.399 26.318 Z M 974.317 31.445 L 974.317 93.457 Q 974.317 94.629 973.828 95.264 Q 971.778 97.949 967.823 101.074 Q 967.139 101.563 966.602 101.563 Q 966.016 101.563 965.381 101.074 Q 963.282 99.463 961.841 98.047 Q 960.401 96.631 959.375 95.264 Q 958.887 94.629 958.887 93.457 L 958.887 71.777 L 958.692 71.777 Q 957.618 73.145 955.909 74.561 Q 954.2 75.977 951.49 76.953 Q 948.78 77.93 944.532 77.93 Q 937.159 77.93 932.447 74.731 Q 927.735 71.533 925.513 65.918 Q 923.291 60.303 923.291 53.125 Q 923.291 45.264 925.879 39.014 Q 928.467 32.764 934.571 29.126 Q 940.674 25.488 951.27 25.488 Q 957.618 25.488 961.939 26.416 Q 966.26 27.344 969.19 28.711 Q 972.12 30.078 974.317 31.445 Z M 1023.682 70.85 L 1028.662 63.477 Q 1029.737 61.914 1031.104 63.281 Q 1032.52 64.648 1034.937 65.942 Q 1037.354 67.236 1040.967 67.236 Q 1044.19 67.236 1046.265 66.138 Q 1048.34 65.039 1048.34 62.939 Q 1048.34 61.475 1047.412 60.547 Q 1046.485 59.619 1044.141 58.643 Q 1041.797 57.666 1037.598 56.152 Q 1031.397 53.906 1028.223 50.732 Q 1025.049 47.559 1025.049 41.455 Q 1025.049 35.84 1028.15 32.324 Q 1031.25 28.809 1036.109 27.173 Q 1040.967 25.537 1046.241 25.537 Q 1052.93 25.537 1055.64 26.782 Q 1058.35 28.027 1059.131 28.711 Q 1059.864 29.346 1060.157 30.176 Q 1060.791 32.08 1061.133 35.205 Q 1061.328 37.012 1060.205 37.598 Q 1059.62 37.939 1058.35 38.33 Q 1057.08 38.721 1055.811 39.014 Q 1054.541 39.307 1053.907 39.307 Q 1053.711 39.307 1053.492 39.185 Q 1053.272 39.063 1052.735 38.574 Q 1052.1 37.939 1050.562 37.109 Q 1049.024 36.279 1046.338 36.279 Q 1043.702 36.279 1041.919 37.134 Q 1040.137 37.988 1040.137 40.137 Q 1040.137 42.48 1042.408 43.652 Q 1044.678 44.824 1049.903 46.68 Q 1054.004 48.096 1057.056 49.78 Q 1060.108 51.465 1061.768 54.175 Q 1063.428 56.885 1063.428 61.475 Q 1063.428 67.432 1060.181 71.069 Q 1056.934 74.707 1051.88 76.343 Q 1046.827 77.979 1041.309 77.979 Q 1036.084 77.979 1032.642 77.1 Q 1029.2 76.221 1027.124 74.976 Q 1025.049 73.73 1023.877 72.705 Q 1022.998 71.875 1023.682 70.85 Z M 1311.377 70.85 L 1316.358 63.477 Q 1317.432 61.914 1318.799 63.281 Q 1320.215 64.648 1322.632 65.942 Q 1325.049 67.236 1328.662 67.236 Q 1331.885 67.236 1333.96 66.138 Q 1336.036 65.039 1336.036 62.939 Q 1336.036 61.475 1335.108 60.547 Q 1334.18 59.619 1331.836 58.643 Q 1329.493 57.666 1325.293 56.152 Q 1319.092 53.906 1315.918 50.732 Q 1312.745 47.559 1312.745 41.455 Q 1312.745 35.84 1315.845 32.324 Q 1318.946 28.809 1323.804 27.173 Q 1328.662 25.537 1333.936 25.537 Q 1340.625 25.537 1343.335 26.782 Q 1346.045 28.027 1346.827 28.711 Q 1347.559 29.346 1347.852 30.176 Q 1348.487 32.08 1348.828 35.205 Q 1349.024 37.012 1347.901 37.598 Q 1347.315 37.939 1346.045 38.33 Q 1344.776 38.721 1343.506 39.014 Q 1342.237 39.307 1341.602 39.307 Q 1341.407 39.307 1341.187 39.185 Q 1340.967 39.063 1340.43 38.574 Q 1339.795 37.939 1338.257 37.109 Q 1336.719 36.279 1334.034 36.279 Q 1331.397 36.279 1329.615 37.134 Q 1327.832 37.988 1327.832 40.137 Q 1327.832 42.48 1330.103 43.652 Q 1332.373 44.824 1337.598 46.68 Q 1341.7 48.096 1344.751 49.78 Q 1347.803 51.465 1349.463 54.175 Q 1351.123 56.885 1351.123 61.475 Q 1351.123 67.432 1347.876 71.069 Q 1344.629 74.707 1339.576 76.343 Q 1334.522 77.979 1329.004 77.979 Q 1323.78 77.979 1320.337 77.1 Q 1316.895 76.221 1314.82 74.976 Q 1312.745 73.73 1311.573 72.705 Q 1310.694 71.875 1311.377 70.85 Z M 203.077 56.445 L 182.129 56.445 Q 182.52 61.475 185.816 64.111 Q 189.112 66.748 194.776 66.748 Q 199.268 66.748 201.978 65.405 Q 204.688 64.063 205.762 63.281 Q 206.69 62.598 207.862 62.646 Q 208.789 62.646 210.523 63.013 Q 212.256 63.379 213.965 64.355 Q 215.186 64.99 215.186 66.113 Q 215.186 66.748 214.942 67.92 Q 214.795 68.604 214.453 69.897 Q 214.112 71.191 213.575 72.314 Q 213.282 72.852 212.647 73.34 Q 211.67 74.023 209.497 75.146 Q 207.325 76.27 203.565 77.124 Q 199.805 77.979 194.043 77.979 Q 185.791 77.979 179.688 75.317 Q 173.584 72.656 170.215 67.041 Q 166.846 61.426 166.846 52.539 Q 166.846 39.209 173.682 32.373 Q 180.518 25.537 191.846 25.537 Q 199.219 25.537 204.322 28.174 Q 209.424 30.811 212.085 35.449 Q 214.746 40.088 214.746 46.045 Q 214.746 51.855 211.768 54.15 Q 208.789 56.445 203.077 56.445 Z M 320.557 56.445 L 299.61 56.445 Q 300 61.475 303.296 64.111 Q 306.592 66.748 312.256 66.748 Q 316.748 66.748 319.458 65.405 Q 322.168 64.063 323.243 63.281 Q 324.17 62.598 325.342 62.646 Q 326.27 62.646 328.003 63.013 Q 329.737 63.379 331.446 64.355 Q 332.666 64.99 332.666 66.113 Q 332.666 66.748 332.422 67.92 Q 332.276 68.604 331.934 69.897 Q 331.592 71.191 331.055 72.314 Q 330.762 72.852 330.127 73.34 Q 329.151 74.023 326.978 75.146 Q 324.805 76.27 321.045 77.124 Q 317.286 77.979 311.524 77.979 Q 303.272 77.979 297.168 75.317 Q 291.065 72.656 287.696 67.041 Q 284.327 61.426 284.327 52.539 Q 284.327 39.209 291.162 32.373 Q 297.998 25.537 309.327 25.537 Q 316.7 25.537 321.802 28.174 Q 326.905 30.811 329.566 35.449 Q 332.227 40.088 332.227 46.045 Q 332.227 51.855 329.248 54.15 Q 326.27 56.445 320.557 56.445 Z M 362.354 38.135 L 362.354 74.17 Q 362.354 75.635 361.744 76.196 Q 361.133 76.758 359.668 76.758 L 349.61 76.758 Q 348.145 76.758 347.535 76.196 Q 346.924 75.635 346.924 74.17 L 346.924 38.135 L 341.162 38.135 Q 339.698 38.135 339.136 37.524 Q 338.575 36.914 338.575 35.449 L 338.575 29.443 Q 338.575 27.979 339.136 27.368 Q 339.698 26.758 341.162 26.758 L 346.924 26.758 L 346.924 20.557 Q 346.924 14.648 349.292 10.4 Q 351.661 6.152 355.689 3.857 Q 359.717 1.563 364.649 1.563 Q 366.944 1.563 368.14 1.758 Q 369.336 1.953 369.922 2.344 Q 371.827 3.418 375.196 6.738 Q 375.733 7.324 375.733 7.91 Q 375.733 8.545 374.903 9.375 Q 373.438 10.889 372.12 11.938 Q 370.801 12.988 369.971 13.525 Q 369.239 13.965 368.677 14.038 Q 368.116 14.111 367.139 14.111 Q 362.354 14.111 362.354 21.436 L 362.354 26.758 L 371.192 26.758 Q 372.657 26.758 373.218 27.368 Q 373.78 27.979 373.78 29.443 L 373.78 35.449 Q 373.78 36.914 373.218 37.524 Q 372.657 38.135 371.192 38.135 L 362.354 38.135 Z M 45.85 46.875 L 45.85 74.512 Q 45.85 75.439 45.337 76.099 Q 44.825 76.758 43.604 76.758 L 36.28 76.758 Q 35.498 76.758 34.888 76.538 Q 34.278 76.318 33.741 75.684 L 30.713 71.777 L 30.371 71.777 Q 28.125 75.049 24.341 76.514 Q 20.557 77.979 15.625 77.979 Q 8.448 77.979 4.224 73.95 Q 0 69.922 0 62.842 Q 0 59.18 1.343 56.03 Q 2.686 52.881 6.031 50.464 Q 9.375 48.047 15.406 46.582 Q 21.436 45.117 30.811 44.873 Q 30.811 40.43 28.589 38.477 Q 26.368 36.523 21.924 36.523 Q 17.92 36.523 15.381 37.891 Q 12.842 39.258 12.207 39.746 Q 11.524 40.332 10.547 40.186 Q 9.229 39.99 7.74 39.502 Q 6.25 39.014 4.541 38.379 Q 4.297 38.281 4.004 38.062 Q 3.711 37.842 3.662 37.402 Q 3.662 37.158 3.711 36.792 Q 3.76 36.426 3.955 35.449 Q 4.151 34.473 4.541 33.032 Q 4.932 31.592 5.274 30.811 Q 5.713 29.98 6.739 29.248 Q 7.569 28.564 11.768 27.051 Q 15.967 25.537 23.926 25.537 Q 45.85 25.537 45.85 46.875 Z M 1187.452 33.74 L 1187.452 33.496 Q 1187.452 36.67 1188.599 41.821 Q 1189.746 46.973 1191.748 52.686 Q 1193.75 58.398 1196.387 63.184 L 1196.631 63.184 Q 1198.828 59.57 1200.537 55.371 Q 1202.246 51.172 1203.418 46.973 Q 1204.59 42.773 1205.201 39.258 Q 1205.811 35.742 1205.811 33.545 L 1205.811 33.74 Q 1205.811 32.568 1206.299 31.934 Q 1207.422 30.566 1208.936 29.15 Q 1210.45 27.734 1212.598 26.123 Q 1213.282 25.635 1213.868 25.635 Q 1214.551 25.635 1215.137 26.123 Q 1217.334 27.734 1218.848 29.15 Q 1220.362 30.566 1221.436 31.934 Q 1221.924 32.568 1221.924 33.643 L 1221.924 33.74 L 1221.924 33.545 L 1221.924 33.643 Q 1221.875 36.279 1220.557 41.04 Q 1219.239 45.801 1217.017 51.489 Q 1214.795 57.178 1212.061 62.671 Q 1209.327 68.164 1206.495 72.217 Q 1204.786 74.707 1203.418 75.732 Q 1202.051 76.758 1198.682 76.758 L 1193.506 76.758 Q 1189.991 76.758 1188.648 75.781 Q 1187.305 74.805 1185.645 72.217 Q 1182.959 67.969 1180.347 62.427 Q 1177.735 56.885 1175.611 51.196 Q 1173.487 45.508 1172.217 40.796 Q 1170.948 36.084 1170.948 33.545 L 1170.948 33.496 L 1170.948 33.74 L 1170.948 33.545 Q 1170.948 32.568 1171.485 31.934 Q 1173.731 29.15 1177.881 26.123 Q 1178.614 25.635 1179.2 25.635 Q 1179.834 25.635 1180.518 26.123 Q 1182.764 27.734 1184.302 29.15 Q 1185.84 30.566 1186.914 31.934 Q 1187.452 32.568 1187.452 33.74 Z M 158.008 64.844 L 161.573 72.9 Q 162.11 74.17 160.987 74.707 Q 159.18 75.635 155.03 76.807 Q 150.879 77.979 144.776 77.979 Q 132.52 77.979 125.196 71.46 Q 117.871 64.941 117.871 51.953 Q 117.871 43.652 121.241 37.744 Q 124.61 31.836 130.811 28.687 Q 137.012 25.537 145.459 25.537 Q 151.27 25.537 153.907 26.489 Q 156.543 27.441 157.227 27.979 Q 158.301 28.662 158.887 29.736 Q 159.229 30.273 159.668 31.592 Q 160.108 32.91 160.303 34.473 Q 160.547 35.693 160.352 36.206 Q 160.157 36.719 159.131 37.451 Q 157.959 38.232 156.568 38.843 Q 155.176 39.453 154.297 39.697 Q 153.565 39.893 153.174 39.795 Q 152.784 39.697 152.1 39.209 Q 151.319 38.672 149.903 38.013 Q 148.487 37.354 145.996 37.354 Q 142.823 37.354 139.966 38.916 Q 137.11 40.479 135.328 43.604 Q 133.545 46.729 133.545 51.416 Q 133.545 58.447 137.232 62.305 Q 140.918 66.162 147.12 66.162 Q 150.293 66.162 152.393 65.503 Q 154.493 64.844 155.713 64.16 Q 156.69 63.623 157.203 63.892 Q 157.715 64.16 158.008 64.844 Z M 1076.416 61.035 L 1076.416 38.135 L 1070.899 38.135 Q 1069.434 38.135 1068.872 37.524 Q 1068.311 36.914 1068.311 35.449 L 1068.311 29.443 Q 1068.311 27.979 1068.872 27.368 Q 1069.434 26.758 1070.899 26.758 L 1076.416 26.758 L 1076.416 18.896 Q 1076.416 17.725 1076.905 17.09 Q 1078.955 14.404 1082.911 11.279 Q 1083.594 10.791 1084.131 10.791 Q 1084.717 10.791 1085.303 11.279 Q 1087.403 12.891 1088.843 14.307 Q 1090.284 15.723 1091.309 17.09 Q 1091.797 17.725 1091.797 18.896 L 1091.797 26.758 L 1100.44 26.758 Q 1101.905 26.758 1102.466 27.368 Q 1103.028 27.979 1103.028 29.443 L 1103.028 35.449 Q 1103.028 36.914 1102.466 37.524 Q 1101.905 38.135 1100.44 38.135 L 1091.797 38.135 L 1091.797 58.35 Q 1091.797 66.162 1097.461 66.162 Q 1098.34 66.162 1099.073 65.991 Q 1099.805 65.82 1100.342 65.625 Q 1101.368 65.234 1101.783 65.332 Q 1102.198 65.43 1102.539 66.406 L 1105.371 73.975 Q 1105.811 75.195 1104.786 75.732 Q 1104.053 76.074 1101.245 77.026 Q 1098.438 77.979 1092.725 77.979 Q 1076.416 77.979 1076.416 61.035 Z M 635.498 73.096 L 625.293 77.783 Q 624.268 78.223 623.828 78.223 Q 623.389 78.223 622.901 77.881 Q 621.778 77.1 620.337 74.048 Q 618.897 70.996 618.897 64.648 L 618.897 8.105 Q 618.897 6.934 619.385 6.299 Q 621.436 3.613 625.391 0.488 Q 626.075 0 626.612 0 Q 627.246 0 627.832 0.488 Q 629.932 2.1 631.372 3.516 Q 632.813 4.932 633.838 6.299 Q 634.327 6.934 634.327 8.105 L 634.327 61.67 Q 634.327 64.893 634.864 67.163 Q 635.401 69.434 636.133 70.801 Q 636.963 72.412 635.498 73.096 Z M 533.594 72.9 L 533.594 29.346 Q 533.594 27.881 534.204 27.319 Q 534.815 26.758 536.28 26.758 L 546.338 26.758 Q 547.803 26.758 548.413 27.319 Q 549.024 27.881 549.024 29.346 L 549.024 75.879 Q 549.024 83.447 546.973 88.208 Q 544.922 92.969 541.797 95.728 Q 538.672 98.486 535.45 100.098 Q 533.692 100.977 532.373 99.414 L 526.416 92.139 Q 525.635 91.211 525.635 90.552 Q 525.635 89.893 526.661 89.209 Q 527.735 88.477 529.37 86.963 Q 531.006 85.449 532.3 82.153 Q 533.594 78.857 533.594 72.9 Z M 825.83 77.979 Q 813.526 77.979 806.348 71.436 Q 799.17 64.893 799.17 51.953 Q 799.17 38.672 806.617 32.104 Q 814.063 25.537 826.514 25.537 Q 838.526 25.537 845.752 32.007 Q 852.979 38.477 852.979 51.074 Q 852.979 64.209 845.752 71.094 Q 838.526 77.979 825.83 77.979 Z M 1002.93 32.422 L 1002.93 36.035 L 1003.125 36.035 Q 1006.787 25.879 1016.309 25.879 Q 1017.53 25.879 1018.311 26.001 Q 1019.092 26.123 1019.385 26.221 Q 1020.118 26.465 1020.118 27.344 L 1020.118 39.111 Q 1020.118 40.625 1018.36 39.941 Q 1017.774 39.697 1016.675 39.429 Q 1015.577 39.16 1013.623 39.16 Q 1008.594 39.16 1005.762 42.847 Q 1002.93 46.533 1002.93 52.881 L 1002.93 74.17 Q 1002.93 75.635 1002.32 76.196 Q 1001.709 76.758 1000.245 76.758 L 990.186 76.758 Q 988.721 76.758 988.111 76.196 Q 987.5 75.635 987.5 74.17 L 987.5 33.252 Q 987.5 32.08 987.989 31.445 Q 989.014 30.078 990.454 28.662 Q 991.895 27.246 993.995 25.635 Q 994.385 25.342 994.776 25.244 Q 995.166 25.146 995.459 25.146 Q 996.143 25.146 996.827 25.635 Q 1000.879 28.809 1002.491 31.055 Q 1002.93 31.641 1002.93 32.422 Z M 519.629 29.346 L 519.629 74.17 Q 519.629 75.635 519.019 76.196 Q 518.409 76.758 516.944 76.758 L 506.885 76.758 Q 505.42 76.758 504.81 76.196 Q 504.2 75.635 504.2 74.17 L 504.2 29.346 Q 504.2 27.881 504.81 27.319 Q 505.42 26.758 506.885 26.758 L 516.944 26.758 Q 518.409 26.758 519.019 27.319 Q 519.629 27.881 519.629 29.346 Z M 826.319 66.162 Q 831.69 66.162 834.424 62.817 Q 837.159 59.473 837.159 51.367 Q 837.159 43.652 834.4 40.503 Q 831.641 37.354 826.221 37.354 Q 820.996 37.354 817.994 40.747 Q 814.991 44.141 814.991 51.758 Q 814.991 59.717 817.847 62.939 Q 820.703 66.162 826.319 66.162 Z M 414.063 59.619 L 414.063 39.453 Q 412.989 38.672 411.036 37.988 Q 409.082 37.305 405.909 37.305 Q 400.245 37.305 397.266 41.113 Q 394.287 44.922 394.287 52.93 Q 394.287 65.479 404.639 65.479 Q 408.692 65.479 410.84 63.818 Q 412.989 62.158 414.063 59.619 Z M 958.887 59.619 L 958.887 39.453 Q 957.813 38.672 955.86 37.988 Q 953.907 37.305 950.733 37.305 Q 945.069 37.305 942.09 41.113 Q 939.112 44.922 939.112 52.93 Q 939.112 65.479 949.463 65.479 Q 953.516 65.479 955.664 63.818 Q 957.813 62.158 958.887 59.619 Z M 258.399 59.619 L 258.399 39.16 Q 257.618 38.672 255.811 37.988 Q 254.004 37.305 250.733 37.305 Q 244.678 37.305 241.651 41.26 Q 238.623 45.215 238.623 51.904 Q 238.623 58.838 241.162 62.158 Q 243.702 65.479 247.901 65.479 Q 252.295 65.479 254.81 63.818 Q 257.325 62.158 258.399 59.619 Z M 74.463 43.848 L 74.463 64.014 Q 75.537 64.795 77.515 65.479 Q 79.493 66.162 82.618 66.162 Q 88.282 66.162 91.26 62.378 Q 94.239 58.594 94.239 51.563 Q 94.239 44.434 91.578 41.211 Q 88.916 37.988 83.887 37.988 Q 79.834 37.988 77.71 39.648 Q 75.586 41.309 74.463 43.848 Z M 878.907 43.848 L 878.907 54.443 Q 878.907 59.18 881.348 62.354 Q 883.789 65.527 888.575 65.527 Q 893.848 65.527 896.753 61.841 Q 899.659 58.154 899.659 51.172 Q 899.659 37.988 888.819 37.988 Q 884.229 37.988 882.032 39.868 Q 879.834 41.748 878.907 43.848 Z M 501.953 10.352 Q 501.953 9.717 502.344 9.229 Q 502.735 8.74 503.37 7.959 Q 504.737 6.396 506.543 4.663 Q 508.35 2.93 510.205 1.318 Q 511.377 0.391 511.963 0.391 Q 512.549 0.391 513.77 1.318 Q 517.725 4.736 520.508 7.959 Q 521.143 8.691 521.558 9.204 Q 521.973 9.717 521.973 10.352 Q 521.973 10.986 521.558 11.475 Q 521.143 11.963 520.459 12.793 Q 519.141 14.307 517.383 16.04 Q 515.625 17.773 513.77 19.336 Q 513.086 19.922 512.696 20.093 Q 512.305 20.264 511.963 20.264 Q 511.621 20.264 511.255 20.093 Q 510.889 19.922 510.108 19.336 Q 508.155 17.773 506.446 16.04 Q 504.737 14.307 503.37 12.695 Q 502.735 11.914 502.344 11.45 Q 501.953 10.986 501.953 10.352 Z M 531.543 10.547 Q 531.543 9.912 531.91 9.448 Q 532.276 8.984 532.911 8.203 Q 534.278 6.641 536.06 4.956 Q 537.842 3.271 539.649 1.709 Q 540.772 0.781 541.358 0.781 Q 541.944 0.781 543.116 1.709 Q 546.924 4.98 549.756 8.203 Q 550.342 8.936 550.757 9.424 Q 551.172 9.912 551.172 10.547 Q 551.172 11.182 550.757 11.646 Q 550.342 12.109 549.707 12.939 Q 548.389 14.453 546.656 16.113 Q 544.922 17.773 543.116 19.336 Q 542.481 19.922 542.09 20.093 Q 541.7 20.264 541.358 20.264 Q 541.016 20.264 540.65 20.093 Q 540.284 19.922 539.551 19.336 Q 537.598 17.773 535.938 16.089 Q 534.278 14.404 532.911 12.842 Q 532.276 12.061 531.91 11.621 Q 531.543 11.182 531.543 10.547 Z M 182.032 46.436 L 197.95 46.436 Q 200.44 46.436 200.44 44.141 Q 200.44 40.674 198.267 38.306 Q 196.094 35.938 191.748 35.938 Q 187.012 35.938 184.79 38.965 Q 182.569 41.992 182.032 46.436 Z M 299.512 46.436 L 315.43 46.436 Q 317.92 46.436 317.92 44.141 Q 317.92 40.674 315.747 38.306 Q 313.575 35.938 309.229 35.938 Q 304.493 35.938 302.271 38.965 Q 300.049 41.992 299.512 46.436 Z M 30.713 59.619 L 30.713 54.199 Q 23.926 54.199 20.533 55.249 Q 17.139 56.299 16.016 57.983 Q 14.893 59.668 14.893 61.621 Q 14.893 64.453 16.651 65.552 Q 18.409 66.65 20.996 66.65 Q 25.489 66.65 27.784 64.355 Q 30.078 62.061 30.713 59.619 Z" vector-effect="non-scaling-stroke"/></g></svg>